<svg 
  viewBox="0 0 100 100" 
  fill="none" 
  xmlns="http://www.w3.org/2000/svg"
>
  <defs>
    <linearGradient id="logoGradient" x1="0%" y1="0%" x2="100%" y2="100%">
      <stop offset="0%" stopColor="#7C3AED" />
      <stop offset="100%" stopColor="#A855F7" />
    </linearGradient>
  </defs>
  <rect width="100" height="100" rx="22" fill="url(#logoGradient)"/>
  <path d="M34 68C34 72 38 74 42 74H58C62 74 66 72 66 68V62C66 56 60 48 50 48C40 48 34 56 34 62V68Z" fill="white"/>
  <path d="M50 24C44 24 40 28 40 34C40 42 50 48 50 48C50 48 60 42 60 34C60 28 56 24 50 24Z" fill="white" />
  <circle cx="50" cy="34" r="3.5" fill="#7C3AED" />
</svg>